HIERARCHY
ROOT Root
{
  OFFSET 0.0 0.0 0.0
  CHANNELS 6 Xposition Yposition Zposition Zrotation Yrotation Xrotation
  JOINT Hips
  {
    OFFSET 0.0 100.0 0.0
    CHANNELS 6 Xposition Yposition Zposition Zrotation Yrotation Xrotation
    JOINT Spine1
    {
      OFFSET -0.013727 5.003763 -0.053727
      CHANNELS 3 Zrotation Yrotation Xrotation
      JOINT Spine2
      {
        OFFSET -0.0 7.125301 -0.029825
        CHANNELS 3 Zrotation Yrotation Xrotation
        JOINT Chest
        {
          OFFSET -1e-06 7.550063 -0.815971
          CHANNELS 3 Zrotation Yrotation Xrotation
          JOINT Neck1
          {
            OFFSET -0.181677 26.311295 -0.553348
            CHANNELS 3 Zrotation Yrotation Xrotation
            JOINT Neck2
            {
              OFFSET -3e-06 7.709397 2.302585
              CHANNELS 3 Zrotation Yrotation Xrotation
              JOINT Head
              {
                OFFSET -5e-06 6.128916 1.953709
                CHANNELS 3 Zrotation Yrotation Xrotation
                JOINT HeadEnd
                {
                  OFFSET 0.003598 16.065403 -1.835379
                  CHANNELS 3 Zrotation Yrotation Xrotation
                }
                JOINT Jaw
                {
                  OFFSET 0.002637 0.475592 3.094941
                  CHANNELS 3 Zrotation Yrotation Xrotation
                }
                JOINT LeftEye
                {
                  OFFSET 3.206381 5.380205 7.586883
                  CHANNELS 3 Zrotation Yrotation Xrotation
                }
                JOINT RightEye
                {
                  OFFSET -3.22244 5.361869 7.558234
                  CHANNELS 3 Zrotation Yrotation Xrotation
                }
              }
            }
          }
          JOINT LeftShoulder
          {
            OFFSET 1.621652 23.237164 5.113413
            CHANNELS 3 Zrotation Yrotation Xrotation
            JOINT LeftArm
            {
              OFFSET 14.919846 2e-06 -5.502326
              CHANNELS 3 Zrotation Yrotation Xrotation
              JOINT LeftForeArm
              {
                OFFSET 28.739307 0.0 -0.002588
                CHANNELS 3 Zrotation Yrotation Xrotation
                JOINT LeftHand
                {
                  OFFSET 27.093981 -1e-06 0.002609
                  CHANNELS 3 Zrotation Yrotation Xrotation
                  JOINT LeftHandThumb1
                  {
                    OFFSET 2.276482 -1.392045 3.191413
                    CHANNELS 3 Zrotation Yrotation Xrotation
                    JOINT LeftHandThumb2
                    {
                      OFFSET 4.012836 -1.828127 1.641654
                      CHANNELS 3 Zrotation Yrotation Xrotation
                      JOINT LeftHandThumb3
                      {
                        OFFSET 2.798515 0.0 -3e-06
                        CHANNELS 3 Zrotation Yrotation Xrotation
                        JOINT LeftHandThumbEnd
                        {
                          OFFSET 3.180793 -4e-06 4e-06
                          CHANNELS 3 Zrotation Yrotation Xrotation
                        }
                      }
                    }
                  }
                  JOINT LeftHandIndex1
                  {
                    OFFSET 3.247555 -0.531998 2.296169
                    CHANNELS 3 Zrotation Yrotation Xrotation
                    JOINT LeftHandIndex2
                    {
                      OFFSET 6.364578 0.01206 0.1786
                      CHANNELS 3 Zrotation Yrotation Xrotation
                      JOINT LeftHandIndex3
                      {
                        OFFSET 3.662364 0.0 0.0
                        CHANNELS 3 Zrotation Yrotation Xrotation
                        JOINT LeftHandIndex4
                        {
                          OFFSET 2.329242 4e-06 4e-06
                          CHANNELS 3 Zrotation Yrotation Xrotation
                          JOINT LeftHandIndexEnd
                          {
                            OFFSET 2.759615 -0.180537 -0.113024
                            CHANNELS 3 Zrotation Yrotation Xrotation
                          }
                        }
                      }
                    }
                  }
                  JOINT LeftHandMiddle1
                  {
                    OFFSET 3.163495 0.240981 1.000332
                    CHANNELS 3 Zrotation Yrotation Xrotation
                    JOINT LeftHandMiddle2
                    {
                      OFFSET 6.19078 -0.259278 -1.002548
                      CHANNELS 3 Zrotation Yrotation Xrotation
                      JOINT LeftHandMiddle3
                      {
                        OFFSET 4.35652 -4e-06 -1e-06
                        CHANNELS 3 Zrotation Yrotation Xrotation
                        JOINT LeftHandMiddle4
                        {
                          OFFSET 2.996877 -8e-06 0.0
                          CHANNELS 3 Zrotation Yrotation Xrotation
                          JOINT LeftHandMiddleEnd
                          {
                            OFFSET 2.304287 -0.294569 -0.031741
                            CHANNELS 3 Zrotation Yrotation Xrotation
                          }
                        }
                      }
                    }
                  }
                  JOINT LeftHandRing1
                  {
                    OFFSET 2.882643 -0.053652 -0.322543
                    CHANNELS 3 Zrotation Yrotation Xrotation
                    JOINT LeftHandRing2
                    {
                      OFFSET 5.854541 -0.486202 -1.373841
                      CHANNELS 3 Zrotation Yrotation Xrotation
                      JOINT LeftHandRing3
                      {
                        OFFSET 4.350578 0.0 3e-06
                        CHANNELS 3 Zrotation Yrotation Xrotation
                        JOINT LeftHandRing4
                        {
                          OFFSET 2.651321 7e-06 2e-06
                          CHANNELS 3 Zrotation Yrotation Xrotation
                          JOINT LeftHandRingEnd
                          {
                            OFFSET 1.936105 0.077687 -7.1e-05
                            CHANNELS 3 Zrotation Yrotation Xrotation
                          }
                        }
                      }
                    }
                  }
                  JOINT LeftHandPinky1
                  {
                    OFFSET 2.8655 -0.310005 -1.600378
                    CHANNELS 3 Zrotation Yrotation Xrotation
                    JOINT LeftHandPinky2
                    {
                      OFFSET 5.087849 -1.331141 -1.77123
                      CHANNELS 3 Zrotation Yrotation Xrotation
                      JOINT LeftHandPinky3
                      {
                        OFFSET 3.070974 4e-06 0.0
                        CHANNELS 3 Zrotation Yrotation Xrotation
                        JOINT LeftHandPinky4
                        {
                          OFFSET 1.549672 0.0 1e-06
                          CHANNELS 3 Zrotation Yrotation Xrotation
                          JOINT LeftHandPinkyEnd
                          {
                            OFFSET 1.944893 -0.157802 0.057219
                            CHANNELS 3 Zrotation Yrotation Xrotation
                          }
                        }
                      }
                    }
                  }
                }
              }
            }
          }
          JOINT RightShoulder
          {
            OFFSET -1.380118 23.180309 5.214158
            CHANNELS 3 Zrotation Yrotation Xrotation
            JOINT RightArm
            {
              OFFSET -15.037196 1.2e-05 -5.545604
              CHANNELS 3 Zrotation Yrotation Xrotation
              JOINT RightForeArm
              {
                OFFSET -28.736639 2e-06 -0.002597
                CHANNELS 3 Zrotation Yrotation Xrotation
                JOINT RightHand
                {
                  OFFSET -27.133619 -0.0 0.002613
                  CHANNELS 3 Zrotation Yrotation Xrotation
                  JOINT RightHandThumb1
                  {
                    OFFSET -2.274032 -1.383988 3.163127
                    CHANNELS 3 Zrotation Yrotation Xrotation
                    JOINT RightHandThumb2
                    {
                      OFFSET -4.011429 -1.827466 1.640914
                      CHANNELS 3 Zrotation Yrotation Xrotation
                      JOINT RightHandThumb3
                      {
                        OFFSET -2.794935 -4e-06 -3e-06
                        CHANNELS 3 Zrotation Yrotation Xrotation
                        JOINT RightHandThumbEnd
                        {
                          OFFSET -3.183852 4e-06 1e-06
                          CHANNELS 3 Zrotation Yrotation Xrotation
                        }
                      }
                    }
                  }
                  JOINT RightHandIndex1
                  {
                    OFFSET -3.253266 -0.520057 2.282866
                    CHANNELS 3 Zrotation Yrotation Xrotation
                    JOINT RightHandIndex2
                    {
                      OFFSET -6.341917 0.012471 0.178266
                      CHANNELS 3 Zrotation Yrotation Xrotation
                      JOINT RightHandIndex3
                      {
                        OFFSET -3.654871 -8e-06 -0.0
                        CHANNELS 3 Zrotation Yrotation Xrotation
                        JOINT RightHandIndex4
                        {
                          OFFSET -2.327586 0.0 1e-06
                          CHANNELS 3 Zrotation Yrotation Xrotation
                          JOINT RightHandIndexEnd
                          {
                            OFFSET -2.76179 -0.180656 -0.113078
                            CHANNELS 3 Zrotation Yrotation Xrotation
                          }
                        }
                      }
                    }
                  }
                  JOINT RightHandMiddle1
                  {
                    OFFSET -3.168106 0.246593 1.00103
                    CHANNELS 3 Zrotation Yrotation Xrotation
                    JOINT RightHandMiddle2
                    {
                      OFFSET -6.180828 -0.258836 -1.000895
                      CHANNELS 3 Zrotation Yrotation Xrotation
                      JOINT RightHandMiddle3
                      {
                        OFFSET -4.348901 0.0 -0.0
                        CHANNELS 3 Zrotation Yrotation Xrotation
                        JOINT RightHandMiddle4
                        {
                          OFFSET -3.00024 -4e-06 -2e-06
                          CHANNELS 3 Zrotation Yrotation Xrotation
                          JOINT RightHandMiddleEnd
                          {
                            OFFSET -2.30252 -0.29437 -0.031706
                            CHANNELS 3 Zrotation Yrotation Xrotation
                          }
                        }
                      }
                    }
                  }
                  JOINT RightHandRing1
                  {
                    OFFSET -2.88569 -0.067952 -0.308858
                    CHANNELS 3 Zrotation Yrotation Xrotation
                    JOINT RightHandRing2
                    {
                      OFFSET -5.854198 -0.48613 -1.373731
                      CHANNELS 3 Zrotation Yrotation Xrotation
                      JOINT RightHandRing3
                      {
                        OFFSET -4.33881 -4e-06 -0.0
                        CHANNELS 3 Zrotation Yrotation Xrotation
                        JOINT RightHandRing4
                        {
                          OFFSET -2.654903 -4e-06 4e-06
                          CHANNELS 3 Zrotation Yrotation Xrotation
                          JOINT RightHandRingEnd
                          {
                            OFFSET -1.933568 0.077527 -5.2e-05
                            CHANNELS 3 Zrotation Yrotation Xrotation
                          }
                        }
                      }
                    }
                  }
                  JOINT RightHandPinky1
                  {
                    OFFSET -2.866425 -0.342796 -1.584145
                    CHANNELS 3 Zrotation Yrotation Xrotation
                    JOINT RightHandPinky2
                    {
                      OFFSET -5.091371 -1.332055 -1.772385
                      CHANNELS 3 Zrotation Yrotation Xrotation
                      JOINT RightHandPinky3
                      {
                        OFFSET -3.062664 -4e-06 1e-06
                        CHANNELS 3 Zrotation Yrotation Xrotation
                        JOINT RightHandPinky4
                        {
                          OFFSET -1.546529 4e-06 -2e-06
                          CHANNELS 3 Zrotation Yrotation Xrotation
                          JOINT RightHandPinkyEnd
                          {
                            OFFSET -1.945119 -0.157718 0.057211
                            CHANNELS 3 Zrotation Yrotation Xrotation
                          }
                        }
                      }
                    }
                  }
                }
              }
            }
          }
        }
      }
    }
    JOINT LeftLeg
    {
      OFFSET 10.043214 -8.434526 2.595655
      CHANNELS 3 Zrotation Yrotation Xrotation
      JOINT LeftShin
      {
        OFFSET -1e-06 -43.221752 -0.802913
        CHANNELS 3 Zrotation Yrotation Xrotation
        JOINT LeftFoot
        {
          OFFSET 1e-06 -42.155094 -3.481523
          CHANNELS 3 Zrotation Yrotation Xrotation
          JOINT LeftToeBase
          {
            OFFSET 0.0 -5.059472 13.231529
            CHANNELS 3 Zrotation Yrotation Xrotation
            JOINT LeftToeEnd
            {
              OFFSET -0.009607 -1.647619 6.513017
              CHANNELS 3 Zrotation Yrotation Xrotation
            }
          }
        }
      }
    }
    JOINT RightLeg
    {
      OFFSET -10.047278 -8.29526 2.620317
      CHANNELS 3 Zrotation Yrotation Xrotation
      JOINT RightShin
      {
        OFFSET 1e-06 -43.362206 -0.805556
        CHANNELS 3 Zrotation Yrotation Xrotation
        JOINT RightFoot
        {
          OFFSET 2e-06 -42.117393 -3.478398
          CHANNELS 3 Zrotation Yrotation Xrotation
          JOINT RightToeBase
          {
            OFFSET -0.0 -5.079609 13.284196
            CHANNELS 3 Zrotation Yrotation Xrotation
            JOINT RightToeEnd
            {
              OFFSET 0.009532 -1.634378 6.460591
              CHANNELS 3 Zrotation Yrotation Xrotation
            }
          }
        }
      }
    }
  }
}
MOTION
Frames: 4
Frame Time: 0.03333333333333333
0.0 0.0 0.0 0.0 -0.0 0.0 1.958961 99.328499 -2.595006 -0.22448 0.237109 1.51812 0.173329 0.02984 -3.019846 -0.480703 -0.285419 -5.819753 -0.586096 -2.352123 9.337281 -0.518834 2.780757 5.080849 -0.63293 0.021382 -3.673435 1.685356 -1.160724 -4.118661 7.7e-05 -2.3e-05 6e-06 -0.008366 0.111663 -0.02892 0.764454 -3.605471 -10.62422 -0.783599 3.83848 -10.627955 -18.069489 -4.247584 13.510931 -59.376003 -2.211311 5.245587 -0.29542 -33.112877 0.307321 -3.103856 -0.133014 -16.709511 -5.882103 9.861282 0.70259 -10.936869 -0.360577 7.156201 2e-06 8.774822 -1e-06 -16.031757 18.498291 6.523983 -1.844032 2.498504 -2.507277 -10.163596 4.678944 4.621106 -20.976021 -6e-06 2e-06 -21.22628 2.451695 -3.593998 1e-06 -6e-06 -0.0 -1.362681 2.240798 -0.746323 -21.334911 0.584907 3.008321 -13.821208 -5e-06 1e-06 -23.887163 -0.249081 -0.839481 -60.452606 2.767058 -1.394242 -0.294024 1.679685 0.833256 -14.218204 0.093212 1.300579 -34.21204 -0.287566 0.967171 -20.033207 0.964534 1.212844 -0.0 0.0 -0.0 -3.440387 0.788233 0.501655 -15.928181 -3.16731 2.999705 -6.338824 -1e-06 0.0 -18.12344 3.648181 -4.90567 -6e-06 1e-06 -3e-06 24.88933 6.61593 17.235857 52.890713 7.965147 13.24964 -0.02168 32.849735 0.055432 1.82986 -2.838712 3.695234 2.243541 -5.255034 -3.180159 14.282886 -0.826593 6.9525 -4e-06 -12.690601 2e-06 16.021917 -17.748909 2.726379 1.665666 -1.955922 -2.878298 4.727797 -4.170586 4.993924 11.020523 3e-06 -2e-06 12.109048 -3.735713 -2.866785 0.0 -1e-06 -2e-06 1.291985 -1.928548 -1.49809 14.800125 0.567468 3.865606 14.242568 -1.341734 -6.660658 19.631968 0.143929 -0.648248 49.721443 -0.566469 -6.304223 0.353029 -1.511151 -0.03194 20.222786 3.684309 2.316628 18.78727 8e-06 -1e-06 10.751625 -0.479867 1.397903 1e-06 0.0 -2e-06 3.273806 0.305947 -0.58011 21.486809 11.830373 2.266129 8.162924 3e-06 0.0 18.399076 -3.798983 -4.940573 4e-06 -0.0 -1e-06 2.187719 11.949573 1.991404 -0.008768 -0.248378 1.920731 -3.175423 3.028049 -6.426054 1.642227 -1.95662 -0.280434 -0.0 0.0 2e-06 -2.195388 -7.510656 0.780912 0.033441 0.106816 1.859185 4.21824 1.973377 -5.017142 -1.423914 0.905473 0.158428 -0.0 -0.0 -1e-06 
0.0 0.0 0.0 0.0 -0.0 0.0 2.009258 99.365921 -2.508921 -0.20801 0.227338 1.599059 0.158458 0.014391 -3.006449 -0.461077 -0.26294 -5.825049 -0.585993 -2.384739 9.298138 -0.495092 2.717347 5.013311 -0.676282 0.094167 -3.675817 1.703614 -1.237421 -4.032939 7.7e-05 -2.2e-05 6e-06 -0.004093 0.128558 -0.036487 0.768366 -3.583092 -10.626343 -0.779443 3.849709 -10.632952 -18.002846 -4.24896 13.498515 -59.390762 -2.206935 5.091446 -0.359265 -33.268372 0.317661 -3.19434 -0.252832 -17.086702 -5.882102 9.861278 0.70259 -10.936864 -0.360576 7.156199 1e-06 8.774817 -2e-06 -16.109585 18.459253 6.444449 -1.844031 2.498504 -2.507276 -10.163592 4.67894 4.621105 -20.976009 -5e-06 3e-06 -21.226271 2.451694 -3.593996 1e-06 -5e-06 -1e-06 -1.36268 2.240796 -0.746323 -21.334898 0.584907 3.008322 -13.821203 -3e-06 2e-06 -23.887152 -0.249079 -0.83948 -60.511044 2.760814 -1.419151 -0.294025 1.679685 0.833255 -14.218199 0.093214 1.300579 -34.212021 -0.287566 0.96717 -20.033199 0.964534 1.212845 -0.0 -1e-06 2e-06 -3.440386 0.788233 0.501655 -15.928174 -3.167308 2.999705 -6.338821 -2e-06 1e-06 -18.123436 3.648179 -4.905665 -6e-06 -0.0 -3e-06 24.812111 6.606311 17.287785 52.943462 7.982463 13.124533 -0.104686 33.139431 0.016237 1.638174 -2.698309 3.115945 2.243538 -5.255033 -3.180155 14.28288 -0.826592 6.952498 -5e-06 -12.690592 1e-06 16.046711 -17.749748 2.677138 1.665663 -1.95592 -2.878298 4.727794 -4.170582 4.99392 11.020517 5e-06 1e-06 12.10904 -3.73571 -2.866783 -0.0 -1e-06 0.0 1.291984 -1.928547 -1.498088 14.800118 0.56747 3.865605 14.242558 -1.341731 -6.660653 19.63195 0.143928 -0.648242 49.691879 -0.549431 -6.333911 0.353029 -1.511149 -0.031941 20.222773 3.68431 2.31663 18.787256 7e-06 4e-06 10.75162 -0.479865 1.397908 1e-06 1e-06 0.0 3.273804 0.305948 -0.580113 21.486799 11.830367 2.266129 8.162921 3e-06 1e-06 18.399067 -3.798978 -4.940566 4e-06 -0.0 1e-06 2.129328 11.852776 1.886503 -0.014717 -0.249364 1.922087 -3.107915 3.097001 -6.41518 1.640625 -1.948172 -0.313327 -0.0 -0.0 2e-06 -2.211642 -7.523956 0.695919 0.021441 0.082315 1.835319 4.256814 1.969648 -5.008391 -1.423338 0.913876 0.116359 0.0 0.0 -1e-06 
0.0 0.0 0.0 0.0 -0.0 0.0 2.051893 99.390297 -2.475645 -0.205285 0.240424 1.661929 0.153731 0.007675 -3.002769 -0.457045 -0.269369 -5.834498 -0.56975 -2.412761 9.278399 -0.45607 2.689723 4.992032 -0.705555 0.13283 -3.685137 1.741466 -1.263642 -3.98771 7.7e-05 -2.3e-05 6e-06 -0.001886 0.119811 -0.041977 0.768705 -3.591174 -10.639162 -0.775784 3.840286 -10.644135 -17.932306 -4.25767 13.481773 -59.395203 -2.198945 5.024008 -0.352717 -33.44516 0.315255 -3.312159 -0.337903 -17.514767 -5.882102 9.861283 0.702589 -10.936866 -0.360576 7.156203 0.0 8.774821 -2e-06 -16.169561 18.449558 6.388864 -1.844031 2.498503 -2.507276 -10.163595 4.678943 4.621107 -20.976013 -3e-06 3e-06 -21.226276 2.451695 -3.593997 -0.0 -6e-06 -1e-06 -1.362681 2.240796 -0.746323 -21.334902 0.584909 3.008323 -13.821205 -3e-06 3e-06 -23.887157 -0.249079 -0.83948 -60.54385 2.738238 -1.413673 -0.294025 1.679688 0.833256 -14.218201 0.093214 1.30058 -34.212036 -0.287564 0.967173 -20.033205 0.964537 1.212845 -0.0 -0.0 0.0 -3.440387 0.788233 0.501656 -15.928179 -3.16731 2.999707 -6.338823 -1e-06 1e-06 -18.12344 3.64818 -4.905668 -6e-06 0.0 -3e-06 24.800068 6.605574 17.331991 52.988354 7.958374 12.985936 -0.200291 33.378475 -0.024684 1.548754 -2.598847 2.572477 2.24354 -5.255033 -3.180155 14.282883 -0.826592 6.952499 -3e-06 -12.690597 -2e-06 16.079664 -17.744997 2.632085 1.665665 -1.955921 -2.878298 4.727797 -4.170584 4.993919 11.02052 5e-06 -0.0 12.109043 -3.735713 -2.866782 -1e-06 -0.0 0.0 1.291985 -1.928548 -1.498087 14.800123 0.56747 3.865607 14.242564 -1.341735 -6.660651 19.631958 0.143925 -0.648242 49.653061 -0.544675 -6.351986 0.353029 -1.51115 -0.031938 20.222784 3.684308 2.316633 18.787266 3e-06 4e-06 10.751623 -0.47987 1.397907 1e-06 -0.0 -2e-06 3.273805 0.305947 -0.58011 21.486807 11.830368 2.266133 8.162922 2e-06 0.0 18.399073 -3.798982 -4.94057 5e-06 1e-06 -1e-06 2.088444 11.815527 1.813887 -0.01351 -0.24876 1.938044 -3.073789 3.127212 -6.457814 1.636601 -1.953751 -0.275789 0.0 -0.0 2e-06 -2.212331 -7.496438 0.629017 0.011933 0.064178 1.829818 4.214799 1.954663 -4.976615 -1.419375 0.901245 0.114543 0.0 0.0 -1e-06 
0.0 0.0 0.0 0.0 -0.0 0.0 2.068068 99.383736 -2.453064 -0.204131 0.251145 1.708807 0.153273 0.004625 -3.00194 -0.46038 -0.273044 -5.84316 -0.547325 -2.447693 9.266237 -0.409618 2.703582 4.975177 -0.740156 0.105999 -3.693391 1.764197 -1.292711 -3.93303 7.7e-05 -2.3e-05 6e-06 -0.000578 0.103299 -0.043996 0.768521 -3.609475 -10.654949 -0.773274 3.825654 -10.659113 -17.866257 -4.285722 13.457158 -59.392014 -2.170624 5.035173 -0.306737 -33.659351 0.298812 -3.369216 -0.435939 -17.851442 -5.882105 9.861284 0.702589 -10.93687 -0.360576 7.156205 1e-06 8.774825 0.0 -16.209478 18.463024 6.361818 -1.844032 2.498503 -2.507278 -10.163599 4.678946 4.621108 -20.976021 -4e-06 -2e-06 -21.226282 2.451695 -3.594002 -0.0 -5e-06 -0.0 -1.362681 2.240799 -0.746324 -21.334913 0.584909 3.008322 -13.821213 -2e-06 0.0 -23.887167 -0.24908 -0.839484 -60.564499 2.692472 -1.38897 -0.294025 1.679688 0.833256 -14.218205 0.093213 1.300579 -34.212048 -0.287565 0.967168 -20.033209 0.964536 1.212844 0.0 -0.0 -1e-06 -3.440388 0.788233 0.501655 -15.928183 -3.16731 2.999706 -6.338824 -1e-06 0.0 -18.123444 3.648181 -4.905672 -6e-06 0.0 -3e-06 24.79146 6.596061 17.356606 53.02742 7.928058 12.934419 -0.253731 33.491112 -0.05285 1.607851 -2.548454 2.270313 2.243541 -5.255034 -3.180157 14.282885 -0.826594 6.952503 -2e-06 -12.690598 0.0 16.118984 -17.744207 2.592848 1.665665 -1.955921 -2.878297 4.727797 -4.170585 4.993925 11.02052 2e-06 -1e-06 12.109047 -3.735713 -2.866783 -1e-06 -0.0 -1e-06 1.291985 -1.928548 -1.498089 14.800122 0.567468 3.865609 14.242564 -1.341736 -6.660655 19.631954 0.143924 -0.648242 49.61327 -0.545657 -6.35882 0.353029 -1.511151 -0.03194 20.222778 3.684307 2.316633 18.78726 2e-06 2e-06 10.751623 -0.479868 1.397908 1e-06 2e-06 -1e-06 3.273805 0.305946 -0.58011 21.486805 11.830366 2.266134 8.162924 2e-06 3e-06 18.399075 -3.798985 -4.94057 4e-06 1e-06 -1e-06 2.055079 11.812525 1.754234 -0.005708 -0.24826 1.977109 -3.06612 3.156287 -6.519672 1.633015 -1.96423 -0.240799 -0.0 -0.0 2e-06 -2.217207 -7.469131 0.587537 0.007211 0.046859 1.836207 4.165903 1.947125 -4.969188 -1.417439 0.884066 0.120491 0.0 0.0 -1e-06 
